<?xml version="1.0" encoding="UTF-8"?>
<svg id="Layer_2" data-name="Layer 2" xmlns="http://www.w3.org/2000/svg" viewBox="0 0 538.59 206.18">
  <defs>
    <style>
      .cls-1 {
        fill: #0072bc;
        stroke: #70c3a1;
      }

      .cls-2 {
        fill: #7ccaae;
      }
    </style>
  </defs>
  <g id="Layer_1-2" data-name="Layer 1">
    <path class="cls-2" d="M495.41,60.62c2.83,0,5.13-2.29,5.13-5.12s-2.29-5.12-5.13-5.12-5.13,2.29-5.13,5.12,2.29,5.12,5.13,5.12Z"/>
    <g>
      <path class="cls-1" d="M35.95,20.56c-3.47-1.03-8.13-1.97-11.6-1.97-2.84,0-6.71,0-6.71,2.76,0,4.26,21.39,3.95,21.39,20.76,0,11.92-9.24,18.16-24.47,18.16-5.37,0-8.92-.71-13.5-1.58v-15.47c4.5.95,9.24,1.58,13.5,1.58,4.5,0,6.63-.79,6.63-2.92,0-5.21-20.68-3.24-20.68-20.52C.5,9.58,9.5,3.58,21.58,3.58c4.89,0,10.34.55,14.37,1.42v15.55Z"/>
      <path class="cls-1" d="M44.23,18.27l14.68-1.26v4.82c3-3.24,6-4.82,10.5-4.82,11.37,0,18.79,10.97,18.79,21.47,0,11.21-7.89,21.79-19.5,21.79-2.92,0-6.55-.63-9.16-3.16v14.05l-15.32,1.26V18.27ZM65.7,45.11c3.63,0,6.08-3,6.08-6.47s-2.45-6.47-6.08-6.47-6.16,3-6.16,6.47,2.45,6.47,6.16,6.47Z"/>
      <path class="cls-1" d="M115.66,60.27v-4.82h-.16c-2.53,3.55-6.63,4.82-11.21,4.82-7.5,0-13.97-5.68-13.97-14.6,0-7.66,6.39-13.42,14.6-13.42,4.26,0,7.18,1.5,9.24,3.16v-2.13c0-4.42-3.16-5.37-7.66-5.37-4.1,0-7.58.95-11.21,2.13l2.76-11.29c4.42-1.26,9.55-1.74,14.53-1.74,9.31,0,18,4.11,18,15.32v26.68l-14.92,1.26ZM110.76,41.87c-2.21,0-4.03,1.5-4.03,3.71s1.5,3.79,4.03,3.79,3.95-1.74,3.95-3.79c0-1.82-1.26-3.71-3.95-3.71Z"/>
      <path class="cls-1" d="M137.05,18.27l14.37-1.26v7.82h.16c1.18-5.13,4.82-7.82,10.58-7.82,1.18,0,2.45.08,3.63.24l-3.71,15c-.63-.08-1.26-.08-2.45-.08-3.95,0-7.26,2.53-7.26,8.05v18.16l-15.32,1.26V18.27Z"/>
      <path class="cls-1" d="M167.91,59.63V2.8l15.31-1.26v34.02h.16l7.34-18.55,16.42,1.26-8.6,17.76,11.05,22.34-16.58,1.26-9.63-21.87h-.16v20.6l-15.31,1.26Z"/>
      <path class="cls-1" d="M211.63,59.63V2.8l15.31-1.26v56.84l-15.31,1.26Z"/>
      <path class="cls-1" d="M272.88,54.35c-5.68,4.1-11.45,5.92-19.18,5.92-12.79,0-21.87-9.39-21.87-20.76,0-14.13,9.63-22.5,21.31-22.5,9.39,0,16.58,5.21,19.97,13.18l-21.16,15.95c1.1.55,3,.71,4.42.71,4.26,0,7.03-1.82,9.55-3.95l6.95,11.45ZM257.8,31.22c-1.26-1.66-2.84-2.05-4.81-2.05-3.79,0-6.39,3.55-6.39,7.1,0,1.74.32,2.21.63,2.92l10.58-7.97Z"/>
      <path class="cls-1" d="M350.3,37.64c0,3.95,2.37,6.55,6.08,6.55s6.08-2.6,6.08-6.55-2.37-6.55-6.08-6.55-6.08,2.6-6.08,6.55ZM378.88,37.64c0,13.18-9.79,21.63-22.5,21.63s-22.5-8.45-22.5-21.63,9.79-21.63,22.5-21.63,22.5,8.45,22.5,21.63Z"/>
      <path class="cls-1" d="M398.52,37.64c0,3.95,2.37,6.55,6.08,6.55s6.08-2.6,6.08-6.55-2.37-6.55-6.08-6.55-6.08,2.6-6.08,6.55ZM427.1,37.64c0,13.18-9.79,21.63-22.5,21.63s-22.5-8.45-22.5-21.63,9.79-21.63,22.5-21.63,22.5,8.45,22.5,21.63Z"/>
      <path class="cls-1" d="M292.13,59.28V3.86h19.66c14.13,0,19.74,9.63,19.74,19.42,0,10.81-7.1,18.63-18.08,18.63h-4.18v16.11l-17.13,1.26ZM309.26,28.41h1.74c2.68,0,3.95-2.68,3.95-5.53s-1.26-5.53-3.95-5.53h-1.74v11.05Z"/>
      <path class="cls-1" d="M432.06,58.64V1.8l15.32-1.26v56.84l-15.32,1.26Z"/>
      <path class="cls-1" d="M452.73,44.59c2.53.79,5.05,1.26,8.05,1.26,2.68,0,6.16.08,6.16-2.05,0-4.18-14.53-.95-14.53-15,0-6.16,4.74-12.79,16.97-12.79,4.66,0,9.63.95,12.08,1.5v12.39c-2.29-.55-4.5-.95-7.11-.95-1.1,0-5.53,0-5.53,1.97,0,4.34,15.16,1.11,15.16,15.16,0,10.26-9.55,13.18-19.66,13.18-3.87,0-7.82-.4-11.6-1.42v-13.26Z"/>
      <path class="cls-1" d="M523.37,36.2c-.73-.04-3.06-.34-4.4.01-6.34,1.69-20.84,11.06-20.84,11.06,0,0,6.96-41.65,28.79-38.43,7.56,1.12,12.25,8.93,10.67,16.41-1.43,6.74-7.54,11.28-14.21,10.95Z"/>
    </g>
    <g>
      <path class="cls-1" d="M.5,146.45l18.89-1.73v41.33h19.32l-3.79,17.08H.5v-56.68Z"/>
      <path class="cls-1" d="M86.6,197.78c-5.61,4.23-12.25,6.47-19.07,6.47-5.09,0-9.92-1.12-13.8-3.11-6.9-3.62-11.65-11.65-11.65-19.76,0-12.51,10.35-22.43,23.29-22.43,9.4,0,16.31,4.49,21.22,13.89l-22.17,16.13c1.55.52,2.67.69,4.23.69,3.19,0,5.95-1.03,10.09-3.97l7.85,12.08ZM69.69,174.06c-1.21-1.64-2.5-2.24-4.49-2.24-4.05,0-7.25,3.28-7.25,7.51,0,.95.09,1.47.6,2.67l11.13-7.94Z"/>
      <path class="cls-1" d="M114.64,204c-2.07.26-3.11.35-4.23.35-4.92,0-8.8-.95-11.22-2.67-3.97-2.93-5.61-7.07-5.61-14.15v-13.46h-5.09l2.67-13.2h2.42v-4.74l16.65-7.07v11.82h5.95v13.2h-5.95v9.23c0,3.28.17,3.97,1.04,4.92.69.78,1.47,1.03,3.02,1.03.17,0,.95,0,1.9-.09l1.12-.09-2.67,14.92Z"/>
      <path class="cls-1" d="M124.65,153.44c0-3.02-.78-4.92-3.02-7.51l12.6-1.21c1.64,3.02,2.16,4.83,2.16,7.51,0,3.97-1.55,8.11-5.35,14.49l-9.4-1.55c1.55-3.02,3.02-8.71,3.02-11.73Z"/>
      <path class="cls-1" d="M142.42,188.64c4.92,1.21,7.33,1.55,10.53,1.55s4.83-.78,4.83-2.33c0-1.12-.95-1.81-3.45-2.42-8.2-2.16-12.25-6.38-12.25-12.77,0-4.49,1.98-8.2,5.69-10.7,3.19-2.16,6.64-3.02,12.08-3.02,4.74,0,9.4.52,13.72,1.55v13.29c-3.88-1.29-5.69-1.64-8.54-1.64-3.28,0-5.26.95-5.26,2.59,0,1.03.78,1.47,4.66,2.42,7.68,1.9,11.99,6.47,11.99,12.68,0,5.26-3.62,10.35-8.97,12.6-2.76,1.21-6.82,1.73-12.42,1.73-3.54,0-8.89-.78-12.6-1.73v-13.8Z"/>
      <path class="cls-1" d="M253.97,199.77c-8.89,3.62-13.98,4.75-21.22,4.75-8.89,0-15.96-2.76-21.74-8.54-5.78-5.78-8.97-13.54-8.97-21.4s3.37-15.96,9.15-21.74c5.87-5.78,13.11-8.63,22.35-8.63,8.02,0,13.29,1.64,20.45,6.47l-9.92,14.49c-3.62-3.02-6.64-4.23-10.35-4.23-6.99,0-12.42,5.87-12.42,13.37s5.35,13.2,11.65,13.2c.95,0,1.98-.09,3.36-.26v-5.44h-8.89l3.28-13.29h23.29v31.23Z"/>
      <path class="cls-1" d="M305.39,197.78c-5.61,4.23-12.25,6.47-19.07,6.47-5.09,0-9.92-1.12-13.8-3.11-6.9-3.62-11.65-11.65-11.65-19.76,0-12.51,10.35-22.43,23.29-22.43,9.4,0,16.31,4.49,21.22,13.89l-22.17,16.13c1.55.52,2.67.69,4.23.69,3.19,0,5.95-1.03,10.09-3.97l7.85,12.08ZM288.48,174.06c-1.21-1.64-2.5-2.24-4.49-2.24-4.05,0-7.25,3.28-7.25,7.51,0,.95.09,1.47.6,2.67l11.13-7.94Z"/>
      <path class="cls-1" d="M333.42,204c-2.07.26-3.11.35-4.23.35-4.92,0-8.8-.95-11.22-2.67-3.97-2.93-5.61-7.07-5.61-14.15v-13.46h-5.09l2.67-13.2h2.42v-4.74l16.65-7.07v11.82h5.95v13.2h-5.95v9.23c0,3.28.17,3.97,1.04,4.92.69.78,1.47,1.03,3.02,1.03.17,0,.95,0,1.9-.09l1.12-.09-2.67,14.92Z"/>
      <path class="cls-1" d="M358.96,146.45l18.46-1.73,6.73,28.3,6.38-27.43h11.56l6.64,27.43,6.47-28.3,18.2,1.73-13.2,56.68h-16.74l-7.33-30.11-7.07,30.11h-16.56l-13.55-56.68Z"/>
      <path class="cls-1" d="M478.88,197.78c-5.61,4.23-12.25,6.47-19.07,6.47-5.09,0-9.92-1.12-13.8-3.11-6.9-3.62-11.65-11.65-11.65-19.76,0-12.51,10.35-22.43,23.29-22.43,9.4,0,16.31,4.49,21.22,13.89l-22.17,16.13c1.55.52,2.67.69,4.23.69,3.19,0,5.95-1.03,10.09-3.97l7.85,12.08ZM461.97,174.06c-1.21-1.64-2.5-2.24-4.49-2.24-4.05,0-7.25,3.28-7.25,7.51,0,.95.09,1.47.6,2.67l11.13-7.94Z"/>
      <path class="cls-1" d="M506.92,204c-2.07.26-3.11.35-4.23.35-4.92,0-8.8-.95-11.22-2.67-3.97-2.93-5.61-7.07-5.61-14.15v-13.46h-5.09l2.67-13.2h2.42v-4.74l16.65-7.07v11.82h5.95v13.2h-5.95v9.23c0,3.28.17,3.97,1.04,4.92.69.78,1.47,1.03,3.02,1.03.17,0,.95,0,1.9-.09l1.12-.09-2.67,14.92Z"/>
      <path class="cls-1" d="M527.28,184.07l10.61,10.53-10.61,10.87-10.61-10.87,10.61-10.53ZM517.01,146.71l20.53-1.98-2.16,35.98-16.13,1.12-2.24-35.11Z"/>
    </g>
    <g>
      <path class="cls-1" d="M63.43,118.19c-2.34,2.14-2.76,2.46-3.69,3.19-1.77,1.31-3.96,1.99-6.46,1.99-3.49,0-6.26-1.08-8.3-3.26-1.99-2.03-3.14-4.79-3.14-7.4,0-2.56.98-4.96,2.85-6.89,1.09-1.2,1.92-1.88,4.11-3.61-2.04-2.81-2.62-4.32-2.62-6.46-.01-5.16,4.25-8.87,10.25-8.88,5.94-.01,9.76,3.16,9.77,8.11,0,3.23-1.03,4.9-5.4,8.61l2.61,2.71,5.04-4.81,5.48,5.77-4.84,4.75,4.86,5.57-6.14,5.38-4.39-4.79ZM54.39,108.14c-1.51,1.1-2.08,2.04-2.08,3.34,0,1.36,1.05,2.34,2.4,2.34,1.15,0,2.13-.58,3.18-1.78l-3.5-3.9ZM58.11,95.68c0-.89-.78-1.62-1.67-1.61-.94,0-1.72.79-1.72,1.78,0,.73.37,1.41,1.36,2.65,1.72-1.46,2.03-1.88,2.03-2.82Z"/>
      <path class="cls-1" d="M75.39,81.14l15.1-1.54,5.7,23.12,5.04-22.5,9.46-.08,5.62,22.41,5.11-23.21,14.91,1.29-10.43,46.49-13.7.11-6.2-24.6-5.59,24.7-13.56.11-11.47-46.31Z"/>
      <path class="cls-1" d="M154.38,123.09c-2.66,3.34-5.12,4.63-8.93,4.66-7.13.06-13.11-5.33-13.16-11.97-.05-6.57,5.7-11.91,12.83-11.97,2.75-.02,4.52.46,8.14,2.34.07-.43.07-.85.06-.99-.03-3.74-2.02-5.21-6.96-5.17-2.9.02-5.01.39-9.88,1.7l2.47-9.63c4.94-.96,8.18-1.34,12.35-1.37,10.74-.09,16.49,4.46,16.56,13.14l.18,22.25-13.62,1.52-.04-4.52ZM150.24,117.97c1.83-.01,3.38-1.44,3.36-3.13-.02-1.91-1.51-3.31-3.56-3.29-1.84.01-3.31,1.44-3.29,3.21.01,1.84,1.58,3.24,3.49,3.22Z"/>
      <path class="cls-1" d="M191.11,127.32c-1.69.22-2.54.3-3.46.31-4.03.03-7.21-.72-9.2-2.12-3.27-2.37-4.64-5.75-4.68-11.54l-.09-11.02-4.17.03,2.1-10.82,1.98-.02-.03-3.89,13.58-5.9.08,9.68,4.87-.04.09,10.8-4.87.04.06,7.56c.02,2.68.17,3.25.88,4.02.57.63,1.21.84,2.48.83.14,0,.78,0,1.55-.08l.92-.08-2.09,12.24Z"/>
      <path class="cls-1" d="M230.8,121.91c-4.56,3.5-9.99,5.38-15.57,5.42-4.17.03-8.13-.85-11.32-2.45-5.67-2.92-9.61-9.46-9.67-16.1-.08-10.24,8.33-18.43,18.92-18.52,7.7-.06,13.38,3.56,17.47,11.23l-18.04,13.35c1.28.41,2.19.55,3.47.54,2.61-.02,4.87-.89,8.24-3.32l6.51,9.84ZM216.8,102.6c-1-1.33-2.06-1.82-3.69-1.8-3.32.03-5.91,2.73-5.88,6.19,0,.78.08,1.2.51,2.19l9.06-6.57Z"/>
      <path class="cls-1" d="M232.89,92.08l12.21-1.51.05,5.93c1.8-4.39,4.54-6.11,9.84-6.15.49,0,1.41.06,2.54.12l-3.43,12.88c-.42-.07-.92-.06-1.2-.06-4.03.03-6.26,3.44-6.21,9.66l.1,12.5-13.62,1.52-.28-34.89Z"/>
      <path class="cls-1" d="M272.28,80.53l15.46-1.54.14,16.81,8.69-.07-.13-15.4,15.46-1.54.38,47.11-15.46,1.54-.15-18.22-8.69.07.14,16.81-15.46,1.54-.38-47.11Z"/>
      <path class="cls-1" d="M336.26,122.61c-2.66,3.34-5.12,4.63-8.93,4.66-7.13.06-13.11-5.33-13.16-11.97-.05-6.57,5.7-11.91,12.83-11.97,2.75-.02,4.52.46,8.14,2.34.07-.43.07-.85.06-.99-.03-3.74-2.02-5.21-6.97-5.17-2.89.02-5.01.39-9.87,1.7l2.47-9.63c4.94-.96,8.18-1.34,12.35-1.37,10.74-.09,16.49,4.46,16.56,13.14l.18,22.25-13.62,1.52-.04-4.52ZM332.12,117.48c1.83-.01,3.38-1.44,3.36-3.13-.02-1.91-1.51-3.31-3.56-3.29-1.84.01-3.31,1.44-3.29,3.21.01,1.84,1.58,3.24,3.49,3.22Z"/>
      <path class="cls-1" d="M374.02,121.24c-1.81,3.83-4.76,5.69-9.2,5.72-3.89.03-6.72-1.36-8.79-4.31-1.64-2.39-2.08-4.22-2.12-8.6l-.18-21.97,13.62-1.52.17,21.05c.01,1.7,1.01,2.89,2.5,2.88,1.48-.01,2.39-1.15,2.38-2.92l-.16-19.63,13.62-1.52.28,34.89-12.07,1.51-.05-5.58Z"/>
      <path class="cls-1" d="M390.52,77.74l13.62-1.52.4,48.94-13.62,1.52-.4-48.94Z"/>
      <path class="cls-1" d="M407.07,81.91l8.56-7.34,8.67,7.2-8.56,7.34-8.68-7.2ZM408.64,91.64l13.62-1.52.28,34.89-13.62,1.52-.28-34.89Z"/>
      <path class="cls-1" d="M426,91.5l12.49-1.51.04,4.87c2.37-3.9,4.83-5.48,8.78-5.51,3.6-.03,7.01,1.64,8.86,4.38,1.5,2.11,2.16,5,2.19,9.38l.18,21.61-13.62,1.52-.16-20.2c-.03-3.11-.67-4.16-2.36-4.15-1.76.01-2.67,1.43-2.65,4.19l.15,18.79-13.62,1.52-.28-34.89Z"/>
      <path class="cls-1" d="M476.69,126.83c3.32-.03,5.5-1.39,5.48-3.37-.02-2.47-3.28-4-8.51-3.96-1.06,0-1.84.09-4.02.39-.28,0-1.06.08-1.98.23l1.74-2.49c-5.24-2.08-8.82-7.42-8.86-13.28-.07-8.26,7.08-15.03,15.98-15.1,1.84-.01,4.66.24,7.63.79l11.28-1.86-2.99,5.67c3.14,4,4.08,6.39,4.11,10.14.04,4.59-1.84,8-6.2,10.93,4.33,2.58,6.26,5.53,6.29,9.63.07,8.62-7.16,13.76-19.52,13.86-5.79.05-10.67-.76-15.7-2.48l6.27-11.28c3.61,1.59,6.09,2.21,8.99,2.19ZM482.23,104.89c-.02-1.91-1.65-3.59-3.56-3.57-2.05.02-3.66,1.65-3.64,3.63.02,1.98,1.65,3.59,3.63,3.57,1.98-.02,3.59-1.65,3.57-3.63Z"/>
    </g>
  </g>
</svg>